# xmcd
#
# Track frame offsets:
#	150
#	18750
#	34072
#	52460
#	73232
#	86375
#	109715
#	127440
#	143385
#	161317
#	183547
#	202192
#
# Disc length: 2977 seconds
#
# Revision: 0
# Processed by: cddbd v1.5.1PL0 Copyright (c) Steve Scherf et al.
# Submitted via: audiograbber 1.82.01
#
DISCID=ad0b9f0c
DTITLE=Marie Fredriksson - The Change
DYEAR=2004
DGENRE=Blues
TTITLE0=The change
TTITLE1=2-nd Chance
TTITLE2=All you've gotta do is feel
TTITLE3=April snow
TTITLE4=Love 2 live
TTITLE5=Mother
TTITLE6=Many times
TTITLE7=All about you
TTITLE8=The good life
TTITLE9=Bad Moon
TTITLE10=A table in the sun
TTITLE11=The change (Orchestral version)
EXTD=
EXTT0=
EXTT1=
EXTT2=
EXTT3=
EXTT4=
EXTT5=
EXTT6=
EXTT7=
EXTT8=
EXTT9=
EXTT10=
EXTT11=
PLAYORDER=
